<?xml version="1.0" encoding="utf-8"?>
<!-- Generator: Adobe Illustrator 19.0.0, SVG Export Plug-In . SVG Version: 6.00 Build 0)  -->
<svg version="1.1" id="layer" xmlns="http://www.w3.org/2000/svg" xmlns:xlink="http://www.w3.org/1999/xlink" x="0px" y="0px"
	 viewBox="-153 -46 652 652" style="enable-background:new -153 -46 652 652;" xml:space="preserve">
<style type="text/css">
	.st0{clip-path:url(#SVGID_2_);fill:url(#SVGID_3_);}
	.st1{fill:#FFFFFF;}
	.st2{fill:#77787B;}
</style>
<g>
	<defs>
		<path id="SVGID_1_" d="M-111.8,132.9v165.4c0,89,66.9,130.7,137.4,130.7h148.5v-296H-111.8z"/>
	</defs>
	<clipPath id="SVGID_2_">
		<use xlink:href="#SVGID_1_"  style="overflow:visible;"/>
	</clipPath>
	
		<linearGradient id="SVGID_3_" gradientUnits="userSpaceOnUse" x1="-123.2464" y1="711.2098" x2="-111.9381" y2="711.2098" gradientTransform="matrix(22.4751 -22.4751 -22.4751 -22.4751 18676.8926 13604.0859)">
		<stop  offset="0" style="stop-color:#E63312"/>
		<stop  offset="0.1691" style="stop-color:#E73712"/>
		<stop  offset="0.3351" style="stop-color:#E84314"/>
		<stop  offset="0.5001" style="stop-color:#EC5615"/>
		<stop  offset="0.6644" style="stop-color:#F07218"/>
		<stop  offset="0.8282" style="stop-color:#F6961C"/>
		<stop  offset="0.9897" style="stop-color:#FDC120"/>
		<stop  offset="1" style="stop-color:#FDC420"/>
	</linearGradient>
	<polygon class="st0" points="-259.9,280.9 31.1,-10.1 322.1,280.9 31.1,571.9 	"/>
</g>
<path class="st1" d="M53.7,321.3h11.1l8.4,22.7h0.1l7.8-22.7h10.4l-13.2,33.3H67.5L53.7,321.3z M123.4,302.1L78.8,244l36.5-53H94.5
	c-10.1,0.8-15.5,10.5-19,14.7l-22.4,32.4l-4.1,5.8l4.1,5.3L82.9,288c3.6,4.3,10.7,14.1,21,14.1H123.4z M51,347.4v-2.2v-24H40.7v33.3
	h4.4l0,0C49.8,354.6,50.8,350.2,51,347.4 M45.9,317.5c3,0,5.3-2.4,5.3-5.4c0-3-2.4-5.4-5.3-5.4c-3,0-5.4,2.4-5.4,5.4
	C40.5,315.1,42.9,317.5,45.9,317.5 M29.5,329.5h2c1.8-0.3,4.3-1.5,4.3-5.9v-2.3h-9.1v-9.9H16.5v9.9v8.2v15.9
	c0,7.3,5.3,10.1,12.1,10.1c2.4,0,4.9-0.2,7.2-1v-8.6c-0.9,0.8-3.1,0.9-4.2,0.9c-4.5,0-4.9-2.6-4.9-6.2v-11.1H29.5z M2.7,346.3
	c-0.3,0-0.6,0.1-1,0.1c-5.1,0-8.2-3.4-8.2-8.4v0c0-5,3.1-8.4,8.2-8.4c0.4,0,0.7,0,1.1,0.1c1.8,0.1,3.4,0.7,4.7,1.7l6.1-6.4
	c-3.2-3.3-8-4.5-11.9-4.5c-10.3,0-18.5,6.9-18.5,17.5c0,10.6,8.2,17.5,18.5,17.5c3.9,0,8.7-1.2,11.9-4.5l-6.1-6.4
	C6.2,345.6,4.5,346.2,2.7,346.3 M123.1,331.4c1.6,5.8-1.3,9.8-5.8,9.8h-17.1c0.8,3.9,3.8,6.4,7.7,6.4c0.3,0,0.5,0,0.8-0.1l0,0
	c0,0,4.3,0.1,7.8-3.1l6,4.4c-3.3,4.2-8.7,6.6-14,6.6c-10.3,0-18.5-6.8-18.5-17.5c0-10.6,8.2-17.5,18.5-17.5
	C115.8,320.5,121.1,324.6,123.1,331.4 M112.5,334.2c0,0,2.2-0.2,1.8-2.3c-0.9-2.3-3.9-4-6.8-4c-4.5,0-7,3.1-7.2,6.3H112.5
	 M16.3,258.9c0,11.7-9.6,19.6-21.4,19.6s-21.4-7.8-21.4-19.6v-67.8h-24.3v70.7c1.5,23.4,20.6,39.5,44.2,40.3v0.1h2.6v-0.1
	c24.6-0.7,44.3-18.4,44.3-43.2h0v-67.8H16.3v68.1 M-34.9,320.5c10.4,0.3,14.1,5,14.7,13.4v7l-0.1,3.3c0,6.6-8.1,11.3-15.4,11.3h-1.7
	c-8.8,0-13.3-5.7-13.3-10.7c0-11.6,12.7-11.4,21.2-11.1c0.1-3.6-2.8-6.1-6.4-6.2c-3.4-0.1-6.2,1.3-8.5,3.8l-5.3-5.8
	C-45.9,322-40.3,320.3-34.9,320.5 M-29.6,340.3l-2.5-0.1c-1,0-2.3,0-3.7,0.1c-3.1,0.4-6.4,1.5-6.4,4.6c0,1.7,1.2,2.7,2.6,3.3
	c0.6,0.2,1.3,0.3,2,0.4c4.1,0.1,7.9-1.9,8-6L-29.6,340.3z"/>
<path class="st2" d="M446.4,354L446.4,354h11.9v-3.4h-4.1v-16.4c0-6.3-3-9.3-8.5-9.3c-4.1,0-7.8,1.9-10.8,4.5v-4.1h-8.2v3.4h4.1v22
	h-4.1v3.4h11.9v-3.4h-3.7V332c1.9-1.5,5.2-3.7,8.9-3.7c4.8,0,6.3,3,6.3,6.7v15.7h-3.7V354z M413.4,327.9L413.4,327.9
	c6.7,0,7.8,5.2,7.1,9.7h-16.3C404.5,332.4,406.7,327.9,413.4,327.9z M424.2,340.2L424.2,340.2c1.5-6,1.1-15.3-10.8-15.3
	c-10,0-13.7,6-13.7,14.9c0,8.6,3.7,14.9,14.1,14.9c3.7,0,6.7-0.4,10-1.5l-0.3-3c-3.4,0.7-5.9,1.1-8.9,1.1c-7.4,0-10.4-4.8-10.4-11.2
	H424.2z M385.2,345.8L385.2,345.8c0,6.7,2.2,8.9,7.8,8.9c1.5,0,3.3-0.4,4.8-0.4l-0.3-3.4c-1.1,0.4-2.2,0.4-3,0.4
	c-4.1,0-5.2-2.2-5.2-6.3v-16.8h8.2v-3h-8.2v-8.2h-3.7l-0.4,8.2l-4.4,0.4v2.6h4.4V345.8z M363,354L363,354h12.6v-3.4h-4.8v-22.4h7.5
	v-3h-7.5v-3.4c0-3.7,1.1-4.8,4.8-4.8c1.1,0,1.9,0,3,0.4l0.7-3.4c-1.5,0-3.3-0.4-4.4-0.4c-5.9,0-8.2,2.2-8.2,7.8v3.7l-4.4,0.4v2.6
	h4.4v22.4H363V354z M348.2,354.7L348.2,354.7c9.2,0,12.6-6.3,12.6-14.9c0-8.9-3.4-14.9-12.6-14.9c-9.3,0-13,6-13,14.9
	C335.2,348.4,338.9,354.7,348.2,354.7z M348.2,328.3L348.2,328.3c6.7,0,8.5,5.2,8.5,11.6c0,6.3-1.8,11.6-8.5,11.6
	c-6.7,0-8.5-5.2-8.5-11.6C339.6,333.5,341.5,328.3,348.2,328.3z M311.5,327.9L311.5,327.9c7.1,0,8.2,5.2,7.1,9.7h-16.3
	C302.6,332.4,305.2,327.9,311.5,327.9z M322.6,340.2L322.6,340.2c1.1-6,1.1-15.3-10.7-15.3c-10,0-13.7,6-13.7,14.9
	c0,8.6,3.7,14.9,14.1,14.9c3.7,0,6.3-0.4,10-1.5l-0.7-3c-3,0.7-5.9,1.1-8.9,1.1c-7.4,0-10-4.8-10.4-11.2H322.6z M277,328.6
	L277,328.6h3.7v22H277v3.4h12.6v-3.4h-4.8v-18.3c2.2-1.5,6.7-3.7,11.5-3.7v-3.7c-4.8,0-8.9,2.2-11.5,4.8v-4.5H277V328.6z
	 M262.5,354.7L262.5,354.7c9.3,0,12.6-6.3,12.6-14.9c0-8.9-3.3-14.9-12.6-14.9c-9.3,0-13,6-13,14.9
	C249.6,348.4,253.3,354.7,262.5,354.7z M262.5,328.3L262.5,328.3c6.7,0,8.5,5.2,8.5,11.6c0,6.3-1.9,11.6-8.5,11.6
	c-6.7,0-8.5-5.2-8.5-11.6C254,333.5,255.9,328.3,262.5,328.3z M239.2,314.8L239.2,314.8l-13.7,32.1l-13.7-32.1h-9.3v3.4h4.1v32.4
	h-4.1v3.4h11.9v-3.4h-4.1V323h0.4L224,354h2.6l13.3-30.9v27.6h-4.1v3.4h12.2v-3.4H244v-32.4h4.1v-3.4H239.2z M466,266.7L466,266.7
	c7.1,0,8.2,5.2,7.1,9.3h-16.3C457.1,270.8,459.4,266.7,466,266.7z M477.2,279L477.2,279c1.1-6,1.1-15.7-10.7-15.7
	c-10,0-13.7,6-13.7,14.9c0,8.9,3.7,14.9,14.1,14.9c3.7,0,6.3,0,10-1.1l-0.7-3.4c-3,1.1-5.9,1.1-8.9,1.1c-7.4,0-10-4.5-10.4-10.8
	H477.2z M440.1,267.5L440.1,267.5h4.4l-8.2,21.3H436l-8.2-21.3h4.4v-3.4h-11.9v3.4h3l10,25.7h4.8l10.4-25.7h2.6v-3.4h-11.1V267.5z
	 M412.7,259.3L412.7,259.3h4.1v-6.7h-4.1V259.3z M408.6,267.5L408.6,267.5h4.1v22h-4.1v3.4h12.2v-3.4h-4.1v-25.4h-8.2V267.5z
	 M393.4,284.3L393.4,284.3c0,6.7,2.2,9,7.8,9c1.1,0,3.3,0,4.8-0.4l-0.3-3c-1.5,0-2.2,0.4-3.4,0.4c-4.1,0-5.2-2.2-5.2-6.7v-16.8h8.5
	v-2.6h-8.5v-8.2h-3.3l-0.4,8.2h-4.8v2.6h4.8V284.3z M386.4,271.2L386.4,271.2v-6.7c-3.4-0.7-5.9-1.1-9.6-1.1c-10,0-13.7,6-13.7,14.9
	c0,8.9,3.7,14.9,13.7,14.9c3.7,0,6.3-0.4,9.6-1.1l-0.7-3.4c-4.4,1.1-7.1,1.1-8.9,1.1c-6.7,0-9.3-4.8-9.3-11.6
	c0-6.7,2.6-11.6,9.3-11.6c1.5,0,3.3,0,6.3,0.7v3.7H386.4z M353.7,287.2L353.7,287.2c-1.5,1.5-4.1,3-7.8,3c-4.4,0-7.1-2.2-7.1-5.6
	c0-3.7,2.2-5.6,8.5-5.6h6.3V287.2z M340.4,271.2L340.4,271.2v-3.7c3-0.7,4.8-0.7,6.3-0.7c5.2,0,7,2.2,7,6.3v3.4H347
	c-5.9,0-11.9,1.5-11.9,8.2c0,6.7,4.8,9,10,8.6c3.3,0,5.9-1.1,8.5-3.4v3h7.8v-3.4h-3.7v-16.8c0-7.1-3.7-9.3-10.4-9.3
	c-3,0-6.7,0.4-10.4,1.1v6.7H340.4z M311.5,266.7L311.5,266.7c7.1,0,8.2,5.2,7.1,9.3h-16.3C302.6,270.8,305.2,266.7,311.5,266.7z
	 M322.6,279L322.6,279c1.1-6,1.1-15.7-10.7-15.7c-10,0-13.7,6-13.7,14.9c0,8.9,3.7,14.9,14.1,14.9c3.7,0,6.3,0,10-1.1l-0.7-3.4
	c-3,1.1-5.9,1.1-8.9,1.1c-7.4,0-10-4.5-10.4-10.8H322.6z M277,267.5L277,267.5h3.7v22H277v3.4h12.6v-3.4h-4.8v-18.3
	c2.2-1.9,6.7-4.1,11.5-4.1v-3.7c-4.8,0-8.9,2.6-11.5,5.2v-4.5H277V267.5z M262.5,293.2L262.5,293.2c9.3,0,12.6-6,12.6-14.9
	c0-9-3.3-14.9-12.6-14.9c-9.3,0-13,6-13,14.9C249.6,287.2,253.3,293.2,262.5,293.2z M262.5,266.7L262.5,266.7
	c6.7,0,8.5,5.2,8.5,11.6c0,6.3-1.9,11.6-8.5,11.6c-6.7,0-8.5-5.2-8.5-11.6C254,272,255.9,266.7,262.5,266.7z M239.2,253.7
	L239.2,253.7l-13.7,32.1l-13.7-32.1h-9.3v3.4h4.1v32.4h-4.1v3.4h11.9v-3.4h-4.1v-28h0.4l13.3,31.3h2.6l13.3-31.3v28h-4.1v3.4h12.2
	v-3.4H244v-32.4h4.1v-3.4H239.2z M476.8,205.2L476.8,205.2c6.7,0,7.8,5.2,7,9.7h-16.3C467.9,209.7,470.1,205.2,476.8,205.2z
	 M487.5,217.5L487.5,217.5c1.5-6,1.1-15.3-10.7-15.3c-10,0-13.3,6-13.3,14.9c0,8.6,3.3,14.9,13.7,14.9c3.7,0,6.7-0.4,10-1.5l-0.4-3
	c-3.3,0.7-5.9,1.1-8.9,1.1c-7.4,0-10.4-4.8-10.4-11.2H487.5z M450.1,194.4L450.1,194.4h3.7V228h-3.7v3.4H462V228h-4.1v-36.9h-7.8
	V194.4z M444.2,217.2L444.2,217.2c0,6-1.9,11.6-7.8,11.6c-3.7,0-6.7-1.9-7.8-3v-17.5c1.1-1.1,4.1-2.6,7.8-2.6
	C442.3,205.6,444.2,210.8,444.2,217.2z M420.5,206L420.5,206h4.1v33.6h-4.1v3.4h11.9v-3.4h-3.7v-10.8c2.2,1.9,5.5,3.4,8.9,3.4
	c8.2,0,10.7-6.7,10.7-14.9c0-8.6-2.6-14.9-10.4-14.9c-3.7,0-7,1.1-9.2,3.4v-3h-8.2V206z M406.4,232.1L406.4,232.1
	c9.2,0,12.6-6.3,12.6-14.9c0-8.9-3.4-14.9-12.6-14.9c-9.6,0-13,6-13,14.9C393.4,225.7,396.8,232.1,406.4,232.1z M406.4,205.6
	L406.4,205.6c6.7,0,8.5,5.2,8.5,11.6s-1.8,11.6-8.5,11.6s-8.9-5.2-8.9-11.6S399.7,205.6,406.4,205.6z M378.6,205.2L378.6,205.2
	c7.1,0,8.2,5.2,7.1,9.7h-16.4C369.7,209.7,371.9,205.2,378.6,205.2z M389.7,217.5L389.7,217.5c1.1-6,1.1-15.3-10.7-15.3
	c-10,0-13.7,6-13.7,14.9c0,8.6,3.7,14.9,14.1,14.9c3.7,0,6.3-0.4,10-1.5l-0.7-3c-3,0.7-5.9,1.1-8.9,1.1c-7.5,0-10.4-4.8-10.4-11.2
	H389.7z M357.4,217.2L357.4,217.2c0,6-1.8,11.6-8.2,11.6c-3.3,0-6.3-1.9-7.8-3v-17.5c1.5-1.1,4.4-2.6,7.8-2.6
	C355.6,205.6,357.4,210.8,357.4,217.2z M333.7,206L333.7,206h3.7v33.6h-3.7v3.4h11.9v-3.4h-4.1v-10.8h0.3c1.9,1.9,5.2,3.4,8.9,3.4
	c7.8,0,10.8-6.7,10.8-14.9c0-8.6-2.6-14.9-10.8-14.9c-3.3,0-7,1.1-8.9,3.4h-0.3v-3h-7.8V206z M311.5,205.2L311.5,205.2
	c7.1,0,8.2,5.2,7.1,9.7h-16.3C302.6,209.7,305.2,205.2,311.5,205.2z M322.6,217.5L322.6,217.5c1.1-6,1.1-15.3-10.7-15.3
	c-10,0-13.7,6-13.7,14.9c0,8.6,3.7,14.9,14.1,14.9c3.7,0,6.3-0.4,10-1.5l-0.7-3c-3,0.7-5.9,1.1-8.9,1.1c-7.4,0-10-4.8-10.4-11.2
	H322.6z M277,206L277,206h3.7v22H277v3.4h12.6V228h-4.8v-18.3c2.2-1.5,6.7-3.7,11.5-3.7v-3.7c-4.8,0-8.9,2.2-11.5,4.8v-4.5H277V206z
	 M262.5,232.1L262.5,232.1c9.3,0,12.6-6.3,12.6-14.9c0-8.9-3.3-14.9-12.6-14.9c-9.3,0-13,6-13,14.9
	C249.6,225.7,253.3,232.1,262.5,232.1z M262.5,205.6L262.5,205.6c6.7,0,8.5,5.2,8.5,11.6s-1.9,11.6-8.5,11.6
	c-6.7,0-8.5-5.2-8.5-11.6S255.9,205.6,262.5,205.6z M239.2,192.2L239.2,192.2l-13.7,32.1l-13.7-32.1h-9.3v3.4h4.1V228h-4.1v3.4h11.9
	V228h-4.1v-27.6h0.4l13.3,30.9h2.6l13.3-30.9V228h-4.1v3.4h12.2V228H244v-32.4h4.1v-3.4H239.2z"/>
</svg>
