<?xml version="1.0" standalone="no"?>
<!DOCTYPE svg PUBLIC "-//W3C//DTD SVG 20010904//EN"
 "http://www.w3.org/TR/2001/REC-SVG-20010904/DTD/svg10.dtd">
<svg version="1.0" xmlns="http://www.w3.org/2000/svg"
 width="460.000000pt" height="460.000000pt" viewBox="0 0 460.000000 460.000000"
 preserveAspectRatio="xMidYMid meet">
<metadata>
Created by potrace 1.16, written by Peter Selinger 2001-2019
</metadata>
<g transform="translate(0.000000,460.000000) scale(0.100000,-0.100000)"
fill="#000000" stroke="none">
<path d="M0 2300 l0 -2300 2300 0 2300 0 0 2300 0 2300 -2300 0 -2300 0 0
-2300z m2038 1670 c-7 -10 -14 -17 -17 -15 -4 4 18 35 25 35 2 0 -1 -9 -8 -20z
m111 3 c-1 -5 0 -19 1 -33 2 -18 4 -20 7 -7 5 19 12 21 32 8 11 -7 10 -11 -5
-20 -11 -6 -14 -11 -7 -11 6 0 14 4 17 9 3 5 15 11 26 14 12 3 18 1 14 -5 -4
-6 -1 -8 7 -6 8 3 13 12 13 21 -1 9 3 14 8 11 5 -3 7 -12 4 -19 -2 -7 5 -16
17 -19 33 -9 44 -7 27 4 -11 8 -7 9 15 4 17 -4 32 -11 33 -16 2 -4 12 -8 22
-8 14 0 22 -12 30 -42 7 -24 21 -58 31 -77 24 -40 12 -55 -35 -45 l-29 6 34
-31 c28 -25 30 -30 15 -31 -10 0 -24 -8 -31 -17 -13 -18 -5 -26 52 -52 24 -11
50 -51 33 -51 -5 0 -10 -7 -10 -16 0 -11 6 -14 20 -9 15 5 20 2 20 -10 0 -11
-5 -15 -15 -12 -8 4 -17 2 -21 -4 -3 -6 -19 -7 -34 -4 -18 4 -38 1 -52 -8 -13
-8 -32 -13 -42 -12 -11 2 -28 0 -37 -6 -10 -5 -31 -11 -48 -12 -36 -4 -61 -23
-61 -46 0 -9 -5 -22 -12 -29 -9 -9 -9 -12 2 -13 8 -1 -14 -5 -50 -9 -71 -8
-118 4 -100 25 7 9 3 20 -15 38 -23 22 -37 26 -128 32 -147 10 -176 3 -227
-57 -8 -10 -37 -24 -65 -32 -49 -15 -50 -15 -26 3 14 10 19 20 12 22 -8 3 -8
14 -1 39 5 19 10 51 10 71 0 20 7 50 15 65 8 16 15 43 15 59 0 23 3 27 10 15
7 -11 10 -7 10 18 0 18 5 43 12 55 11 21 11 21 19 2 7 -18 8 -17 8 5 1 34 33
110 47 110 6 0 21 11 34 25 13 14 30 23 37 21 7 -3 13 2 13 10 0 12 11 15 54
13 36 -2 61 2 72 12 11 9 15 9 10 2 -4 -8 -2 -13 8 -13 8 0 18 5 21 10 3 6 14
10 23 10 15 0 15 -2 2 -10 -12 -8 -11 -10 8 -10 12 0 22 5 22 10 0 6 7 22 16
35 13 20 25 25 55 25 22 0 38 -3 38 -7z m-364 -603 c-11 -5 -33 -8 -50 -8
l-30 0 30 8 c17 4 39 8 50 8 l20 1 -20 -9z m-100 -10 c-3 -5 4 -11 17 -11 20
-1 21 -2 3 -6 -11 -3 -27 -10 -35 -17 -13 -10 -13 -9 -1 7 9 11 10 17 2 17 -6
0 -11 5 -11 10 0 6 7 10 16 10 8 0 12 -4 9 -10z m343 -6 c16 -11 22 -24 20
-47 l-1 -32 -4 33 c-2 17 -5 32 -6 32 -1 0 -20 7 -42 15 -33 11 -35 14 -15 15
14 0 36 -7 48 -16z m-392 -11 c-5 -27 -24 -70 -33 -76 -4 -3 -8 17 -8 44 0 44
2 49 22 49 16 0 22 -5 19 -17z m184 -23 c-19 -12 -30 -12 -30 -1 0 10 31 20
40 14 2 -2 -2 -8 -10 -13z m332 5 c10 -4 13 -40 12 -163 0 -132 2 -164 18
-199 20 -47 16 -89 -10 -95 -35 -8 -108 -1 -144 15 -31 14 -38 14 -48 2 -17
-20 29 -65 67 -65 25 0 29 -4 28 -27 0 -15 6 -28 13 -29 6 -1 17 -2 23 -3 5 0
7 -6 4 -12 -4 -6 -14 -8 -24 -5 -14 5 -14 4 1 -7 10 -8 15 -17 12 -20 -11 -11
7 -28 19 -19 7 5 21 8 31 6 21 -3 49 20 38 31 -4 4 7 1 23 -6 46 -21 58 -45
28 -56 -10 -3 -26 -13 -36 -22 -10 -8 -48 -18 -85 -22 -37 -4 -74 -10 -84 -14
-11 -4 -18 0 -23 13 -5 16 -12 19 -38 16 -84 -12 -100 -9 -88 14 6 11 6 24 0
33 -7 11 -9 11 -9 0 0 -8 -6 -11 -17 -7 -17 6 -17 5 0 -8 16 -12 16 -14 1 -20
-9 -3 -20 -3 -25 0 -5 3 -8 0 -7 -7 2 -7 23 -23 48 -35 25 -12 56 -33 69 -48
14 -14 29 -26 34 -26 6 0 2 9 -8 20 -10 11 -16 23 -13 26 4 3 64 -2 135 -10
71 -9 134 -16 141 -16 16 0 16 -32 0 -48 -9 -9 -7 -12 13 -13 16 -1 19 -3 7
-6 -10 -2 -18 -8 -18 -12 0 -5 -21 -9 -46 -9 -26 -1 -49 -4 -52 -7 -3 -2 -12
0 -19 7 -11 9 -17 9 -24 -3 -5 -8 -9 -9 -9 -4 0 6 -5 3 -10 -5 -9 -13 -12 -13
-23 0 -14 17 -57 26 -57 12 0 -16 29 -35 45 -28 8 3 15 2 15 -3 0 -21 38 -46
74 -48 35 -2 37 -1 20 13 -17 13 -16 13 11 1 17 -8 36 -12 42 -10 7 3 16 -2
19 -11 3 -9 12 -16 20 -16 17 0 18 17 2 23 -7 3 2 5 20 4 l33 0 -22 -23 c-13
-14 -19 -31 -16 -46 4 -23 4 -22 6 2 1 19 7 26 23 27 16 2 19 0 9 -6 -7 -5
-10 -14 -6 -21 4 -6 -1 -21 -12 -32 -10 -12 -14 -22 -8 -25 6 -2 9 -19 7 -38
-4 -31 -6 -34 -21 -23 -13 10 -14 10 -3 -2 17 -19 15 -47 -3 -54 -8 -3 -15 -1
-15 3 0 18 -35 22 -46 6 -8 -10 -14 -12 -19 -6 -3 6 -12 11 -18 11 -8 0 -8 -3
2 -9 8 -5 9 -11 3 -15 -5 -3 -13 1 -16 10 -6 16 -27 16 -71 -1 l-20 -8 20 17
c20 17 20 17 -2 6 -12 -5 -20 -16 -17 -23 3 -8 -2 -14 -11 -14 -9 0 -15 10
-15 26 l0 25 -16 -22 c-8 -12 -22 -22 -30 -22 -16 0 -64 47 -64 62 0 4 -11 6
-25 2 -15 -4 -25 -2 -25 5 0 6 5 11 11 11 5 0 7 5 4 10 -4 6 -12 4 -21 -5 -19
-18 -25 -19 -21 -3 1 7 -9 14 -22 16 -15 2 -21 0 -16 -7 3 -6 11 -8 17 -5 7 4
8 2 4 -5 -11 -17 -37 5 -29 25 3 7 -2 17 -12 20 -9 4 -14 12 -11 19 3 8 -2 16
-9 19 -8 3 -12 12 -9 21 3 8 1 15 -4 15 -6 0 -9 -15 -7 -32 l3 -33 -18 40
c-10 22 -19 50 -19 63 -1 12 -5 22 -11 22 -5 0 -10 10 -11 23 0 12 -3 17 -5
10 -6 -13 -66 41 -83 74 -6 12 -11 33 -11 48 0 14 -4 24 -8 21 -5 -3 -7 35 -5
84 2 57 0 90 -7 90 -5 0 -10 12 -10 28 0 19 -3 23 -9 14 -10 -16 -16 4 -26 91
-5 41 -11 57 -22 57 -11 0 -13 -3 -5 -12 6 -7 13 -31 17 -53 3 -22 8 -51 11
-65 l4 -25 -17 28 c-17 27 -33 35 -33 18 0 -30 14 -71 24 -68 20 7 32 -17 45
-91 19 -108 -12 -124 -60 -31 -56 110 -96 271 -94 378 1 74 3 85 23 102 50 40
95 -12 83 -94 -6 -33 -5 -47 3 -44 6 2 12 30 14 63 2 32 11 84 20 114 14 46
17 51 20 28 4 -34 19 -37 24 -5 2 12 10 22 18 22 8 0 21 4 28 9 9 5 22 0 37
-14 13 -12 28 -19 34 -16 5 4 34 7 63 8 36 0 57 6 65 17 10 14 11 13 6 -7 -5
-21 -3 -22 33 -17 29 4 35 3 24 -4 -9 -7 -10 -11 -3 -11 6 0 18 6 25 13 7 6
20 13 28 15 8 2 19 10 23 18 11 19 37 18 37 -1 0 -15 25 -21 33 -7 5 9 -1 -13
-9 -33 -10 -25 12 -17 24 9 6 13 16 51 23 85 11 57 13 61 39 61 16 0 34 -2 42
-5z m575 -17 c-3 -8 -6 -5 -6 6 -1 11 2 17 5 13 3 -3 4 -12 1 -19z m-877 -28
c0 -5 -5 -10 -11 -10 -5 0 -7 5 -4 10 3 6 8 10 11 10 2 0 4 -4 4 -10z m535
-37 c0 -1 -11 0 -23 4 -22 5 -22 6 -5 25 18 20 18 20 24 -4 3 -12 5 -24 4 -25z
m342 -5 c-2 -13 -4 -5 -4 17 -1 22 1 32 4 23 2 -10 2 -28 0 -40z m-706 29 c-1
-12 -15 -9 -19 4 -3 6 1 10 8 8 6 -3 11 -8 11 -12z m-201 -39 c0 -5 -9 -4 -20
2 -21 11 -25 22 -13 34 8 7 33 -21 33 -36z m110 27 c0 -8 -4 -15 -10 -15 -5 0
-7 7 -4 15 4 8 8 15 10 15 2 0 4 -7 4 -15z m35 -5 c-3 -5 -11 -10 -16 -10 -6
0 -7 5 -4 10 3 6 11 10 16 10 6 0 7 -4 4 -10z m744 -84 c-9 -8 -10 -7 -5 7 3
10 7 24 7 30 1 7 3 4 6 -7 3 -10 -1 -23 -8 -30z m-217 -27 c-22 -7 -43 -7 -60
0 -23 8 -17 9 33 9 55 0 57 -1 27 -9z m-5 -19 l35 0 -4 -80 -3 -80 26 0 c22 0
28 -6 33 -32 7 -40 -8 -108 -26 -119 -11 -7 -10 -9 1 -9 10 0 12 -9 8 -34 -3
-19 0 -39 6 -45 8 -8 8 -11 -2 -11 -7 0 -9 -5 -6 -10 4 -6 11 -8 16 -4 11 6 2
-40 -13 -70 -7 -12 -7 -21 1 -25 11 -7 4 -51 -9 -51 -5 0 -15 -3 -23 -6 -24
-9 -26 20 -6 81 13 39 16 62 9 70 -5 6 -7 15 -3 18 3 4 0 13 -7 22 -8 9 -9 15
-2 15 6 0 0 11 -14 25 -14 14 -27 25 -29 25 -12 0 -48 45 -76 96 -25 43 -29
58 -19 64 7 5 15 33 18 63 4 48 2 56 -16 61 -11 4 -23 14 -26 22 -3 8 -2 13 2
10 5 -3 22 -1 38 4 16 4 35 6 42 4 8 -2 29 -4 49 -4z m90 -112 c-3 -7 -5 -2
-5 12 0 14 2 19 5 13 2 -7 2 -19 0 -25z m-507 -167 c0 -4 -9 -7 -20 -8 -11 -1
-20 4 -20 12 0 8 7 11 20 8 11 -3 20 -8 20 -12z m34 -47 c3 -8 2 -12 -4 -9 -6
3 -10 1 -10 -6 0 -7 -2 -10 -5 -7 -5 5 4 38 10 38 2 0 6 -7 9 -16z m52 -43
c-3 -5 1 -12 10 -15 9 -4 15 -9 12 -11 -3 -3 -13 -3 -22 1 -18 7 -22 34 -5 34
5 0 8 -4 5 -9z m-426 -539 c0 -7 -5 -10 -10 -7 -6 4 -7 11 -4 17 5 7 1 9 -9 5
-12 -5 -17 -1 -17 13 0 19 1 19 20 3 11 -10 20 -23 20 -31z m390 -62 c0 -5 -4
-10 -10 -10 -5 0 -10 5 -10 10 0 6 5 10 10 10 6 0 10 -4 10 -10z m-367 -44
c-3 -4 -9 -2 -14 5 -13 22 -11 31 5 17 8 -7 12 -17 9 -22z m-26 -38 c-3 -7 -5
-2 -5 12 0 14 2 19 5 13 2 -7 2 -19 0 -25z m39 16 c-8 -20 11 -54 30 -54 8 0
12 -4 9 -10 -3 -5 -1 -10 5 -10 6 0 8 -4 5 -10 -3 -5 -1 -10 4 -10 6 0 11 -5
11 -11 0 -5 -4 -7 -10 -4 -5 3 -10 -1 -10 -9 0 -8 5 -18 12 -22 6 -4 8 -3 4 4
-8 13 13 27 24 16 8 -9 17 -50 19 -87 1 -11 7 -17 18 -15 12 2 18 -4 18 -19 0
-22 35 -63 55 -63 20 0 10 16 -17 27 l-28 11 27 1 c15 1 34 -6 43 -15 12 -13
82 -54 90 -54 1 0 2 6 2 14 0 8 -5 12 -12 10 -6 -3 -19 4 -29 15 -10 11 -24
18 -30 14 -6 -4 -5 1 3 10 12 15 12 17 -2 11 -9 -3 -24 -1 -34 5 -17 10 -17
10 1 11 12 0 16 5 12 16 -4 10 -2 14 6 11 7 -2 12 -9 11 -15 -1 -6 7 -7 20 -4
18 5 19 7 5 10 -10 2 -18 8 -18 13 0 5 -8 10 -17 10 -17 1 -17 2 0 6 13 3 16
10 11 25 -4 14 -2 18 5 14 6 -4 11 -1 11 6 0 10 2 10 9 -1 5 -8 7 -20 4 -28
-4 -9 4 -13 23 -13 21 0 25 -3 15 -9 -10 -7 -4 -9 19 -8 21 1 35 -3 38 -13 5
-13 3 -13 -14 0 -17 14 -18 13 -7 -1 7 -9 9 -20 5 -24 -4 -5 1 -5 11 -2 9 4
17 2 17 -3 0 -6 -6 -10 -14 -10 -17 0 -41 -28 -32 -38 4 -4 12 1 17 11 6 9 15
17 22 17 7 0 -1 -12 -16 -25 -18 -16 -23 -25 -13 -25 8 0 17 -4 20 -9 3 -4 -5
-6 -18 -4 -13 3 -27 0 -31 -7 -5 -8 -10 -8 -21 1 -9 7 -14 8 -14 1 0 -6 13
-19 29 -28 17 -10 28 -21 26 -25 -3 -4 2 -10 11 -13 9 -4 13 -2 8 5 -4 8 1 9
17 4 23 -7 24 -7 4 9 -11 8 -15 16 -9 16 14 0 49 -31 57 -50 5 -13 6 -13 6 1
1 8 -4 20 -11 27 -9 9 -9 12 1 12 7 0 10 4 7 9 -11 17 50 -2 74 -24 28 -25 76
-26 113 -2 38 25 72 58 72 70 0 5 6 12 14 15 8 3 11 0 7 -7 -10 -15 5 -14 29
2 13 9 29 11 45 6 24 -7 24 -7 3 -8 -28 -1 -31 -21 -3 -21 11 0 20 -4 20 -10
0 -5 -7 -10 -15 -10 -8 0 -15 -4 -15 -10 0 -5 -5 -10 -11 -10 -5 0 -7 6 -4 13
4 6 -1 3 -9 -7 -9 -11 -16 -25 -15 -30 0 -6 3 -5 6 2 4 10 8 10 19 1 10 -8 14
-8 14 0 0 6 5 11 11 11 5 0 7 -5 4 -10 -4 -6 -1 -17 5 -25 10 -12 9 -15 -4
-15 -13 0 -16 -6 -11 -22 3 -14 -2 -10 -15 12 -11 19 -19 28 -19 20 3 -21 -12
-51 -21 -45 -8 5 -80 -75 -80 -88 0 -4 8 -4 18 0 11 4 8 -1 -8 -15 -21 -19
-22 -21 -5 -16 11 3 -23 -17 -75 -45 -52 -28 -97 -51 -100 -51 -3 1 3 5 12 11
19 11 14 39 -7 39 -8 0 -15 12 -17 28 -2 22 -9 28 -33 30 -16 2 -32 8 -35 12
-3 5 -17 11 -30 13 -14 2 -32 7 -41 11 -10 4 -40 0 -69 -8 -64 -19 -93 -9
-164 56 -36 34 -49 52 -49 74 0 16 -2 23 -4 16 -9 -23 -33 8 -33 42 0 24 3 27
10 16 15 -24 12 -4 -7 35 -12 25 -19 32 -26 23 -5 -8 -6 6 -3 36 3 27 6 70 7
95 1 36 3 40 8 21 6 -20 8 -22 13 -8 10 25 -2 60 -19 54 -9 -4 -13 -1 -11 6 3
7 13 13 23 13 12 0 19 -9 21 -29 4 -43 14 -44 14 -2 0 21 -9 48 -20 64 -18 24
-20 62 -3 62 3 0 2 -7 -1 -16z m-59 -116 c-3 -7 -5 -2 -5 12 0 14 2 19 5 13 2
-7 2 -19 0 -25z m283 -42 c0 -8 -6 -16 -14 -19 -10 -4 -12 0 -9 14 6 22 23 26
23 5z m85 -6 c3 -5 1 -10 -4 -10 -6 0 -11 5 -11 10 0 6 2 10 4 10 3 0 8 -4 11
-10z m35 -20 c0 -5 -4 -10 -10 -10 -5 0 -10 5 -10 10 0 6 5 10 10 10 6 0 10
-4 10 -10z m128 -133 c4 6 18 13 32 17 14 3 19 3 13 0 -7 -3 -13 -12 -13 -20
0 -8 -8 -14 -17 -14 -15 0 -16 -2 -4 -9 12 -8 9 -11 -12 -17 -16 -3 -31 -4
-34 0 -4 3 1 6 10 6 10 0 17 5 17 10 0 10 -13 14 -37 11 -6 -1 -15 4 -19 10
-5 8 -3 9 5 4 8 -4 19 2 29 16 l17 24 3 -24 c2 -13 7 -20 10 -14z m315 26 c-7
-2 -19 -2 -25 0 -7 3 -2 5 12 5 14 0 19 -2 13 -5z m-258 -52 c3 -5 2 -12 -3
-15 -5 -3 -9 1 -9 9 0 17 3 19 12 6z m441 -1140 c79 -36 95 -96 43 -156 -44
-49 -78 -65 -144 -65 -92 0 -135 33 -135 104 0 46 46 99 103 120 57 20 84 19
133 -3z m353 -68 c76 -58 38 -184 -65 -212 -51 -14 -100 0 -156 42 -48 37 -61
71 -42 115 29 71 195 105 263 55z m317 -87 c40 -40 43 -72 15 -140 -22 -51
-60 -76 -116 -76 -47 0 -83 20 -128 69 -47 53 -52 108 -11 146 26 24 54 30
153 33 48 2 56 -1 87 -32z m-921 -84 c-5 -4 -10 -13 -10 -21 0 -8 -6 -16 -13
-19 -10 -3 -11 16 -3 46 1 1 9 2 19 2 9 0 13 -4 7 -8z m43 -22 c-7 -11 -16
-20 -20 -20 -5 0 -8 9 -8 20 0 13 7 20 20 20 18 0 19 -2 8 -20z m35 -10 c4
-15 0 -20 -14 -20 -17 0 -18 3 -9 20 6 11 12 20 14 20 2 0 6 -9 9 -20z m37 8
c0 -9 3 -8 10 2 5 8 11 12 14 9 7 -7 -23 -49 -35 -49 -5 0 -9 11 -9 25 0 14 5
25 10 25 6 0 10 -6 10 -12z m60 -22 c0 -19 -4 -23 -20 -19 -16 4 -18 9 -9 24
14 26 29 24 29 -5z m55 10 c9 4 12 0 8 -14 -3 -13 -13 -19 -29 -19 -28 0 -28
1 -12 30 6 13 13 17 15 10 3 -7 10 -10 18 -7z m76 -19 c-1 -4 -1 -13 -1 -21 0
-9 -7 -12 -20 -9 -16 4 -18 9 -9 25 10 18 31 22 30 5z m-268 -11 c10 -1 22 -8
27 -16 7 -11 10 -12 10 -2 0 10 8 12 33 6 17 -4 39 -7 48 -6 23 1 17 -42 -7
-46 -12 -2 -15 0 -7 5 8 6 9 14 3 23 -8 12 -10 12 -16 -3 -8 -22 -25 -22 -18
1 5 14 3 14 -10 -2 -12 -15 -16 -16 -16 -5 0 12 -2 12 -10 -1 -5 -8 -10 -10
-10 -4 0 7 -11 9 -25 6 -14 -2 -25 0 -25 6 0 7 -13 9 -34 5 -30 -5 -34 -3 -31
13 2 11 4 23 4 27 1 5 16 5 34 1 17 -4 40 -7 50 -8z m333 3 c8 -14 -21 -43
-35 -35 -19 12 -13 46 8 46 11 0 23 -5 27 -11z m44 -24 c0 -26 -7 -30 -28 -17
-16 10 -5 42 14 42 8 0 14 -10 14 -25z m40 5 c0 -5 7 -7 16 -3 12 4 15 0 12
-18 -2 -15 -9 -23 -18 -20 -8 2 -21 4 -27 4 -14 0 -16 8 -7 31 7 17 24 22 24
6z m75 -10 c3 -5 2 -10 -4 -10 -6 0 -8 -7 -5 -15 5 -11 0 -15 -17 -14 -13 0
-18 3 -11 6 6 2 10 9 6 14 -6 11 3 29 16 29 5 0 12 -4 15 -10z m-240 -15 c21
-3 40 -7 41 -8 1 -1 -4 -13 -11 -27 -14 -25 -14 -25 -15 -2 0 12 -4 22 -10 22
-5 0 -9 -6 -7 -12 2 -12 -7 -13 -60 -6 -7 1 -13 8 -14 17 0 10 -2 12 -6 4 -8
-21 -22 -15 -16 7 4 15 11 19 32 15 14 -3 44 -8 66 -10z m304 -2 c0 -5 -4 -17
-9 -28 -8 -18 -9 -17 -9 8 -1 15 4 27 9 27 6 0 10 -3 9 -7z m-243 -51 c-12
-11 -18 7 -10 30 l8 23 4 -23 c2 -13 1 -26 -2 -30z m279 19 c0 -16 -3 -27 -7
-24 -10 5 -10 37 -1 46 9 10 9 10 8 -22z m-239 3 c-3 -9 -6 -20 -6 -25 0 -5
-4 -9 -10 -9 -5 0 -9 11 -8 25 1 14 9 25 16 25 9 0 12 -6 8 -16z m28 -16 c-4
-23 -4 -23 7 -2 10 19 15 20 48 12 34 -9 54 -38 27 -38 -6 0 -4 -5 4 -10 13
-8 12 -10 -2 -10 -12 0 -18 8 -18 23 -1 21 -1 22 -15 3 -15 -19 -15 -19 -15 4
0 22 -1 23 -14 5 -17 -24 -46 -14 -39 14 7 28 22 27 17 -1z m318 -23 c4 -19 2
-23 -7 -15 -6 5 -15 6 -20 2 -4 -4 -2 3 4 16 15 28 18 28 23 -3z m50 1 c6 4 5
-2 -1 -15 -15 -28 -19 -27 -18 7 0 15 2 21 4 14 3 -6 9 -9 15 -6z m31 -24 c-3
-12 -9 -22 -14 -22 -5 0 -3 11 3 25 13 30 20 28 11 -3z m-214 -27 c1 -7 -2 -7
-7 0 -4 6 -13 10 -21 10 -8 0 -15 6 -17 13 -1 7 0 8 3 2 8 -16 23 -12 24 8 0
14 2 14 9 -3 5 -11 9 -24 9 -30z m26 -3 c-8 -8 -25 17 -25 38 0 9 6 6 16 -8 9
-13 13 -26 9 -30z m220 26 c-6 -22 -6 -22 9 -4 9 11 18 17 21 14 3 -2 -6 -15
-20 -28 l-25 -23 0 25 c0 22 7 38 17 38 3 0 2 -10 -2 -22z m-185 3 c0 -5 3
-16 6 -25 4 -10 1 -16 -7 -16 -7 0 -9 3 -6 7 4 3 0 15 -10 25 -15 17 -15 18 0
18 10 0 17 -4 17 -9z m35 -11 c3 -5 -1 -10 -10 -10 -9 0 -13 5 -10 10 3 6 8
10 10 10 2 0 7 -4 10 -10z m45 -20 c0 -5 6 -7 14 -4 18 7 28 -9 20 -30 -7 -18
-30 -21 -39 -6 -4 6 1 7 12 3 16 -6 16 -5 4 10 -10 13 -18 14 -32 6 -21 -11
-39 -5 -39 14 0 7 4 6 10 -3 9 -13 12 -13 21 3 11 18 29 23 29 7z m70 -17 c0
-5 -5 -15 -10 -23 -8 -12 -10 -11 -10 8 0 12 5 22 10 22 6 0 10 -3 10 -7z m31
-17 c15 9 10 -2 -10 -20 -18 -16 -18 -16 -13 11 3 15 7 22 10 15 2 -6 8 -10
13 -6z"/>
<path d="M2100 3950 c0 -5 5 -10 10 -10 6 0 10 5 10 10 0 6 -4 10 -10 10 -5 0
-10 -4 -10 -10z"/>
<path d="M1610 3410 c0 -5 5 -10 10 -10 6 0 10 5 10 10 0 6 -4 10 -10 10 -5 0
-10 -4 -10 -10z"/>
<path d="M1577 3139 c7 -7 15 -10 18 -7 3 3 -2 9 -12 12 -14 6 -15 5 -6 -5z"/>
<path d="M1417 3103 c-4 -3 -6 -25 -6 -47 1 -23 4 -31 6 -18 2 12 13 27 24 33
16 8 18 13 8 25 -13 15 -22 18 -32 7z"/>
<path d="M1505 2960 c-3 -5 -1 -10 4 -10 6 0 11 5 11 10 0 6 -2 10 -4 10 -3 0
-8 -4 -11 -10z"/>
<path d="M2045 2802 c-15 -11 -16 -29 -1 -29 6 0 13 9 13 19 2 20 2 20 -12 10z"/>
<path d="M1816 2733 c-16 -13 -26 -30 -22 -38 3 -8 0 -17 -6 -21 -7 -4 -8 -3
-4 4 4 7 2 12 -4 12 -7 0 -9 -7 -6 -16 3 -9 6 -23 6 -32 0 -10 9 -23 19 -29
18 -11 19 -10 10 19 -7 24 -5 36 7 49 9 10 13 23 9 29 -6 9 -2 9 14 1 12 -7
21 -8 20 -4 -1 4 -1 16 0 27 1 15 4 16 16 6 10 -9 15 -9 15 -1 0 6 -3 11 -7
12 -5 0 -15 2 -23 4 -9 1 -28 -8 -44 -22z"/>
<path d="M2003 2746 c-4 -8 -17 -16 -28 -19 -16 -4 -15 -5 6 -6 19 -1 28 5 32
19 6 23 1 26 -10 6z"/>
<path d="M2027 2729 c-4 -15 -2 -18 7 -10 7 6 17 7 22 3 4 -4 2 1 -5 11 -17
21 -18 21 -24 -4z"/>
<path d="M1906 2705 c4 -8 10 -15 15 -15 5 0 9 7 9 15 0 8 -7 15 -15 15 -9 0
-12 -6 -9 -15z"/>
<path d="M2210 2346 c0 -2 8 -10 18 -17 15 -13 16 -12 3 4 -13 16 -21 21 -21
13z"/>
<path d="M1800 2280 c0 -5 10 -10 23 -10 18 0 19 2 7 10 -19 13 -30 13 -30 0z"/>
<path d="M2254 2255 c3 -21 16 -31 16 -12 0 9 -4 18 -9 21 -5 4 -8 -1 -7 -9z"/>
<path d="M2430 3066 c0 -7 6 -18 13 -24 10 -8 13 -6 14 8 1 10 -5 21 -13 24
-8 3 -14 -1 -14 -8z"/>
<path d="M1840 1936 c0 -8 4 -17 9 -20 5 -4 7 3 4 14 -6 23 -13 26 -13 6z"/>
<path d="M1785 1920 c3 -5 11 -10 16 -10 6 0 7 5 4 10 -3 6 -11 10 -16 10 -6
0 -7 -4 -4 -10z"/>
<path d="M1880 1811 c0 -5 7 -12 16 -15 14 -5 15 -4 4 9 -14 17 -20 19 -20 6z"/>
<path d="M2035 1810 c-3 -5 -1 -10 4 -10 6 0 11 5 11 10 0 6 -2 10 -4 10 -3 0
-8 -4 -11 -10z"/>
<path d="M1967 1768 c-12 -9 -14 -17 -7 -28 5 -8 13 -11 17 -6 4 5 2 11 -5 13
-10 4 -8 9 5 19 10 7 15 14 12 14 -3 0 -13 -6 -22 -12z"/>
<path d="M2472 1680 c0 -14 2 -19 5 -12 2 6 2 18 0 25 -3 6 -5 1 -5 -13z"/>
<path d="M2390 1630 c0 -5 4 -10 9 -10 6 0 13 5 16 10 3 6 -1 10 -9 10 -9 0
-16 -4 -16 -10z"/>
<path d="M2294 1584 c-18 -14 -18 -15 6 -8 14 3 32 10 40 15 12 7 11 8 -6 9
-11 0 -29 -7 -40 -16z"/>
<path d="M2237 1521 c-17 -6 -18 -8 -3 -21 10 -8 20 -10 26 -4 14 14 -3 32
-23 25z"/>
<path d="M2650 510 c0 -5 5 -10 10 -10 6 0 10 5 10 10 0 6 -4 10 -10 10 -5 0
-10 -4 -10 -10z"/>
<path d="M2940 482 c-44 -21 -49 -44 -16 -77 46 -46 126 -20 126 41 0 51 -49
67 -110 36z"/>
<path d="M3325 458 c11 -6 37 -27 58 -46 20 -20 37 -33 37 -30 0 23 -28 59
-55 73 -37 17 -71 20 -40 3z"/>
<path d="M3243 444 c-16 -11 -13 -12 22 -7 50 7 52 9 20 15 -14 3 -33 -1 -42
-8z"/>
<path d="M3177 432 c-19 -20 -23 -77 -7 -87 6 -3 10 3 10 15 0 11 7 36 14 55
16 38 9 45 -17 17z"/>
<path d="M3226 407 c-17 -13 -17 -15 -2 -45 32 -62 86 -79 124 -39 24 26 27
48 12 78 -9 15 -22 19 -63 19 -29 0 -61 -6 -71 -13z"/>
<path d="M3379 336 c-15 -33 -15 -35 2 -26 24 13 28 22 20 43 -5 14 -9 11 -22
-17z"/>
<path d="M3200 330 c0 -11 9 -24 21 -30 33 -18 36 -7 7 22 -25 24 -28 24 -28
8z"/>
<path d="M3305 276 c-47 -8 -64 -14 -52 -19 35 -14 94 -7 118 13 13 10 20 19
14 18 -5 0 -41 -6 -80 -12z"/>
<path d="M2455 291 c-3 -5 -1 -12 5 -16 5 -3 10 1 10 9 0 18 -6 21 -15 7z"/>
<path d="M2825 290 c-3 -5 -1 -10 4 -10 6 0 11 5 11 10 0 6 -2 10 -4 10 -3 0
-8 -4 -11 -10z"/>
<path d="M2740 230 c0 -5 5 -10 11 -10 5 0 7 5 4 10 -3 6 -8 10 -11 10 -2 0
-4 -4 -4 -10z"/>
<path d="M3245 110 c3 -5 8 -10 11 -10 2 0 4 5 4 10 0 6 -5 10 -11 10 -5 0 -7
-4 -4 -10z"/>
</g>
</svg>
