<?xml version="1.0" standalone="no"?>
<!DOCTYPE svg PUBLIC "-//W3C//DTD SVG 20010904//EN"
 "http://www.w3.org/TR/2001/REC-SVG-20010904/DTD/svg10.dtd">
<svg version="1.0" xmlns="http://www.w3.org/2000/svg"
 width="200.000000pt" height="200.000000pt" viewBox="0 0 200.000000 200.000000"
 preserveAspectRatio="xMidYMid meet">
<metadata>
Created by potrace 1.16, written by Peter Selinger 2001-2019
</metadata>
<g transform="translate(0.000000,200.000000) scale(0.100000,-0.100000)"
fill="#000000" stroke="none">
<path d="M775 1859 c-58 -8 -63 -12 -129 -81 -95 -100 -159 -195 -152 -229 3
-14 1 -42 -4 -62 -5 -22 -4 -37 1 -37 6 0 5 -9 -1 -20 -6 -12 -9 -42 -7 -68
l3 -47 3 55 c3 71 17 40 20 -44 2 -67 11 -88 36 -92 15 -2 16 5 10 74 -9 103
14 205 67 294 22 37 45 71 51 77 22 18 181 50 225 46 27 -3 52 1 65 9 26 16
51 9 87 -26 83 -79 130 -170 154 -298 28 -146 35 -156 31 -43 -2 56 -6 107
-10 113 -3 6 -8 22 -11 36 -3 14 -11 43 -18 65 -14 41 -4 54 14 18 7 -11 14
-18 17 -16 2 3 -7 25 -21 50 -14 24 -24 46 -21 49 3 3 -1 11 -10 18 -8 7 -15
18 -15 24 0 6 -9 17 -20 24 -11 7 -20 18 -20 25 0 7 -15 28 -33 45 -35 34 -63
40 -129 27 -28 -6 -44 -3 -62 9 -28 17 -33 18 -121 5z m292 -45 c-3 -3 -12 -4
-19 -1 -8 3 -5 6 6 6 11 1 17 -2 13 -5z"/>
<path d="M1006 1420 c-36 -11 -65 -37 -64 -58 1 -10 0 -21 -2 -27 -6 -24 3
-31 43 -33 31 -2 38 0 27 8 -11 7 -7 8 16 4 17 -3 34 -1 38 4 3 6 15 8 25 5
22 -6 37 12 20 23 -8 5 -9 3 -4 -6 5 -8 3 -11 -6 -8 -8 3 -13 10 -12 15 1 6
-11 9 -27 7 -17 -2 -30 1 -30 7 0 6 -9 8 -22 4 -18 -5 -20 -4 -8 4 8 6 27 11
41 11 26 0 68 24 58 34 -11 11 -65 15 -93 6z"/>
<path d="M697 1378 c-22 -8 -26 -13 -16 -24 6 -8 26 -14 43 -14 l31 -1 -30
-13 c-41 -19 -71 -43 -63 -51 3 -4 16 -1 28 5 18 9 24 9 30 0 8 -14 50 -5 50
11 0 5 9 4 21 -3 17 -11 22 -10 33 4 7 10 16 15 19 11 12 -11 7 11 -11 47 -15
32 -21 35 -62 37 -25 1 -58 -3 -73 -9z"/>
<path d="M1302 1335 c0 -16 2 -22 5 -12 2 9 2 23 0 30 -3 6 -5 -1 -5 -18z"/>
<path d="M1271 1214 c0 -11 3 -14 6 -6 3 7 2 16 -1 19 -3 4 -6 -2 -5 -13z"/>
<path d="M935 1121 c-7 -12 29 -33 39 -24 3 3 6 12 6 20 0 15 -36 18 -45 4z"/>
<path d="M835 1111 c-3 -5 -1 -12 4 -15 13 -8 42 4 35 15 -7 12 -31 12 -39 0z"/>
<path d="M880 999 c-25 -6 -60 -12 -77 -15 -18 -4 -33 -10 -33 -16 0 -5 8 -7
18 -4 42 12 207 26 239 20 26 -5 34 -3 31 6 -5 16 -117 21 -178 9z"/>
<path d="M1210 783 c0 -21 -12 -45 -42 -79 l-42 -49 42 39 c48 46 71 91 53
109 -8 8 -11 3 -11 -20z"/>
<path d="M913 725 c-43 -22 -46 -35 -10 -35 13 0 17 5 13 15 -4 11 1 15 19 15
26 0 34 -15 13 -23 -7 -2 -9 -8 -5 -13 10 -11 41 9 45 29 6 31 -30 37 -75 12z"/>
<path d="M1277 708 c-4 -24 -31 -99 -60 -168 -30 -69 -82 -211 -116 -317 -34
-106 -64 -199 -67 -208 -6 -13 46 -15 480 -15 l486 0 0 218 0 219 -282 94
c-288 96 -349 124 -409 191 l-26 29 -6 -43z"/>
<path d="M685 592 c-3 -15 -3 -59 0 -97 6 -68 7 -71 53 -112 26 -22 48 -40 50
-38 2 1 -9 36 -24 76 -14 41 -35 102 -45 137 -11 34 -22 62 -24 62 -2 0 -6
-13 -10 -28z"/>
<path d="M602 508 c-12 -20 -29 -41 -37 -48 -12 -10 -14 -7 -10 24 3 20 3 36
0 36 -2 0 -71 -29 -152 -64 -81 -34 -170 -71 -198 -81 -64 -23 -110 -69 -125
-124 -17 -64 -30 -153 -24 -162 3 -5 1 -9 -4 -9 -5 0 -6 -17 -3 -37 l6 -38
263 -3 262 -2 2 107 c1 60 1 119 0 133 -1 23 11 94 40 226 14 70 7 86 -20 42z"/>
<path d="M651 444 c0 -11 3 -14 6 -6 3 7 2 16 -1 19 -3 4 -6 -2 -5 -13z"/>
</g>
</svg>
